<svg width="28" height="24" viewBox="0 0 28 24" fill="none" xmlns="http://www.w3.org/2000/svg">
<path fill-rule="evenodd" clip-rule="evenodd" d="M5.38095 6V9H3V6C3 2.6875 6.1994 0 10.1429 0C14.0863 0 17.2857 2.6875 17.2857 6V9H14.9048V6C14.9048 4.93913 14.4031 3.92172 13.51 3.17157C12.617 2.42143 11.4058 2 10.1429 2C8.87992 2 7.66871 2.42143 6.77568 3.17157C5.88265 3.92172 5.38095 4.93913 5.38095 6ZM11.3333 18H13.7143L28 6L25.619 4L11.3333 16V18ZM10.5 19H15.1667L21 14V22C20.9982 22.53 20.7518 23.0378 20.3146 23.4125C19.8774 23.7872 19.2849 23.9984 18.6667 24H2.33333C1.71506 23.9984 1.12263 23.7872 0.685436 23.4125C0.248247 23.0378 0.00182738 22.53 0 22V12C0.00182738 11.47 0.248247 10.9623 0.685436 10.5875C1.12263 10.2128 1.71506 10.0016 2.33333 10H16.3333L10.5 15V19Z" fill="#06529B"/>
</svg>
